<?xml version="1.0" encoding="UTF-8"?>
<svg id="Layer_2" data-name="Layer 2" xmlns="http://www.w3.org/2000/svg" viewBox="0 0 573.54 185.3">
  <g id="Layer_1-2" data-name="Layer 1">
    <g>
      <path d="M91.84,56.48c0,10.24-2.14,19.47-6.4,27.68-4.7,8.75-11.47,15.47-20.32,20.16-9.71,5.12-23.04,7.68-40,7.68H0V5.28h26.08c10.45,0,18.56.48,24.32,1.44,9.17,1.5,16.8,4.38,22.88,8.64,12.37,8.86,18.56,22.56,18.56,41.12ZM78.4,55.52c0-18.24-6.56-30.77-19.68-37.6-4.38-2.24-9.71-3.68-16-4.32-2.56-.21-8.16-.32-16.8-.32h-13.92v90.88h13.12c8.32,0,14.77-.42,19.36-1.28,6.93-1.17,12.8-3.57,17.6-7.2,10.88-8.32,16.32-21.71,16.32-40.16Z"/>
      <path d="M172.64,73.28h-52.64c.21,9.28,2.51,17.01,6.88,23.2,4.91,6.72,11.47,10.35,19.68,10.88,7.15.43,14.35-1.6,21.6-6.08l2.4,4.96c-8,4.7-15.84,7.2-23.52,7.52-11.52.53-20.91-3.09-28.16-10.88-7.15-7.46-10.72-17.12-10.72-28.96,0-10.88,2.72-19.95,8.16-27.2,6.4-8.53,15.52-12.8,27.36-12.8,19.31,0,28.96,13.12,28.96,39.36ZM162.88,67.68c0-7.79-1.65-14.21-4.96-19.28-3.31-5.07-8.06-7.6-14.24-7.6-7.15,0-12.83,2.51-17.04,7.52-4.22,5.02-6.32,11.47-6.32,19.36h42.56Z"/>
      <path d="M250.73,108.64l-9.12,4.64-36.96-44.16v42.88h-10.72V0h10.72v67.84h.8l35.36-33.44,8,4.48-33.12,30.08,35.04,39.68Z"/>
      <path d="M322.25,112h-11.52c-1.28-3.84-1.92-9.65-1.92-17.44-6.4,12.8-15.1,19.2-26.08,19.2-6.72,0-11.95-2.05-15.68-6.16-3.74-4.11-5.6-9.57-5.6-16.4,0-12.05,9.07-20.64,27.2-25.76l20.32-5.76c0-5.76-1.66-10.48-4.96-14.16-3.31-3.68-7.63-5.52-12.96-5.52-6.83,0-13.82,2.45-20.96,7.36l-3.36-4.16c7.15-6.18,15.63-9.28,25.44-9.28,10.88,0,18.67,3.2,23.36,9.6,2.77,3.73,4.16,11.2,4.16,22.4v22.56c0,10.46.85,18.3,2.56,23.52ZM308.97,65.6l-10.72,2.88c-7.79,2.13-13.5,4.43-17.12,6.88-5.55,3.95-8.32,9.18-8.32,15.68,0,4.05,1.2,7.55,3.6,10.48,2.4,2.94,5.52,4.4,9.36,4.4,4.37,0,8.48-1.6,12.32-4.8,3.31-2.77,5.87-6.29,7.68-10.56,2.13-5.12,3.2-13.44,3.2-24.96Z"/>
      <path d="M420.97,71.84c0,11.74-3.04,21.44-9.12,29.12-6.72,8.53-15.84,12.8-27.36,12.8s-20.22-5.39-26.72-16.16v87.7h-10.72V35.84h10.72v16c6.08-11.95,15.73-17.92,28.96-17.92,10.56,0,18.99,3.68,25.28,11.04,5.97,7.04,8.96,16,8.96,26.88ZM408.97,72.16c0-8.11-1.98-15.2-5.92-21.28-4.48-6.82-10.56-10.24-18.24-10.24-9.28,0-16.32,3.79-21.12,11.36-3.95,6.3-5.92,14.35-5.92,24.16,0,8.54,2.24,15.74,6.72,21.6,4.91,6.51,11.47,9.76,19.68,9.76s14.72-3.94,19.2-11.84c3.73-6.51,5.6-14.35,5.6-23.52Z"/>
      <path d="M505.93,112h-10.72v-14.08c-5.44,10.56-15.31,15.84-29.6,15.84-11.63,0-19.15-4.96-22.56-14.88-1.39-3.84-2.08-10.51-2.08-20v-43.04h10.72v42.88c0,7.26.75,12.7,2.24,16.32,2.88,7.68,8.85,11.52,17.92,11.52s15.47-4.26,19.52-12.8c2.56-5.33,3.84-11.2,3.84-17.6v-40.32h10.72v76.16Z"/>
      <path d="M573.45,94.4c-.54,6.29-3.31,11.2-8.32,14.72-4.59,3.09-10.3,4.64-17.12,4.64-7.68,0-15.1-2.83-22.24-8.48l4.96-5.28c5.65,4.91,11.41,7.36,17.28,7.36,3.84,0,7.17-1.2,10-3.6,2.83-2.4,4.24-5.41,4.24-9.04,0-5.97-4.7-12.43-14.08-19.36-6.4-4.69-10.3-7.73-11.68-9.12-4.06-4.05-6.08-8.37-6.08-12.96,0-6.18,2.56-11.09,7.68-14.72,4.48-3.09,10.03-4.64,16.64-4.64,6.19,0,11.89,2.03,17.12,6.08l-3.84,4.64c-3.84-2.88-8.48-4.32-13.92-4.32-3.31,0-6.24.8-8.8,2.4-2.99,1.82-4.48,4.27-4.48,7.36,0,4.27,3.36,8.8,10.08,13.6,6.4,4.59,11.89,8.96,16.48,13.12,4.59,5.12,6.61,10.99,6.08,17.6Z"/>
    </g>
  </g>
</svg>