<?xml version="1.0" encoding="UTF-8"?>
<svg id="Layer_2" data-name="Layer 2" xmlns="http://www.w3.org/2000/svg" viewBox="0 0 573.54 396.38">
  <g id="Layer_1-2" data-name="Layer 1">
    <g>
      <g>
        <path d="M91.84,56.48c0,10.24-2.14,19.47-6.4,27.68-4.7,8.75-11.47,15.47-20.32,20.16-9.71,5.12-23.04,7.68-40,7.68H0V5.28h26.08c10.45,0,18.56.48,24.32,1.44,9.17,1.5,16.8,4.38,22.88,8.64,12.37,8.86,18.56,22.56,18.56,41.12ZM78.4,55.52c0-18.24-6.56-30.77-19.68-37.6-4.38-2.24-9.71-3.68-16-4.32-2.56-.21-8.16-.32-16.8-.32h-13.92v90.88h13.12c8.32,0,14.77-.42,19.36-1.28,6.93-1.17,12.8-3.57,17.6-7.2,10.88-8.32,16.32-21.71,16.32-40.16Z"/>
        <path d="M172.64,73.28h-52.64c.21,9.28,2.51,17.01,6.88,23.2,4.91,6.72,11.47,10.35,19.68,10.88,7.15.43,14.35-1.6,21.6-6.08l2.4,4.96c-8,4.7-15.84,7.2-23.52,7.52-11.52.53-20.91-3.09-28.16-10.88-7.15-7.46-10.72-17.12-10.72-28.96,0-10.88,2.72-19.95,8.16-27.2,6.4-8.53,15.52-12.8,27.36-12.8,19.31,0,28.96,13.12,28.96,39.36ZM162.88,67.68c0-7.79-1.65-14.21-4.96-19.28-3.31-5.07-8.06-7.6-14.24-7.6-7.15,0-12.83,2.51-17.04,7.52-4.22,5.02-6.32,11.47-6.32,19.36h42.56Z"/>
        <path d="M250.73,108.64l-9.12,4.64-36.96-44.16v42.88h-10.72V0h10.72v67.84h.8l35.36-33.44,8,4.48-33.12,30.08,35.04,39.68Z"/>
        <path d="M322.25,112h-11.52c-1.28-3.84-1.92-9.65-1.92-17.44-6.4,12.8-15.1,19.2-26.08,19.2-6.72,0-11.95-2.05-15.68-6.16-3.74-4.11-5.6-9.57-5.6-16.4,0-12.05,9.07-20.64,27.2-25.76l20.32-5.76c0-5.76-1.66-10.48-4.96-14.16-3.31-3.68-7.63-5.52-12.96-5.52-6.83,0-13.82,2.45-20.96,7.36l-3.36-4.16c7.15-6.18,15.63-9.28,25.44-9.28,10.88,0,18.67,3.2,23.36,9.6,2.77,3.73,4.16,11.2,4.16,22.4v22.56c0,10.46.85,18.3,2.56,23.52ZM308.97,65.6l-10.72,2.88c-7.79,2.13-13.5,4.43-17.12,6.88-5.55,3.95-8.32,9.18-8.32,15.68,0,4.05,1.2,7.55,3.6,10.48,2.4,2.94,5.52,4.4,9.36,4.4,4.37,0,8.48-1.6,12.32-4.8,3.31-2.77,5.87-6.29,7.68-10.56,2.13-5.12,3.2-13.44,3.2-24.96Z"/>
        <path d="M420.97,71.84c0,11.74-3.04,21.44-9.12,29.12-6.72,8.53-15.84,12.8-27.36,12.8s-20.22-5.39-26.72-16.16v87.7h-10.72V35.84h10.72v16c6.08-11.95,15.73-17.92,28.96-17.92,10.56,0,18.99,3.68,25.28,11.04,5.97,7.04,8.96,16,8.96,26.88ZM408.97,72.16c0-8.11-1.98-15.2-5.92-21.28-4.48-6.82-10.56-10.24-18.24-10.24-9.28,0-16.32,3.79-21.12,11.36-3.95,6.3-5.92,14.35-5.92,24.16,0,8.54,2.24,15.74,6.72,21.6,4.91,6.51,11.47,9.76,19.68,9.76s14.72-3.94,19.2-11.84c3.73-6.51,5.6-14.35,5.6-23.52Z"/>
        <path d="M505.93,112h-10.72v-14.08c-5.44,10.56-15.31,15.84-29.6,15.84-11.63,0-19.15-4.96-22.56-14.88-1.39-3.84-2.08-10.51-2.08-20v-43.04h10.72v42.88c0,7.26.75,12.7,2.24,16.32,2.88,7.68,8.85,11.52,17.92,11.52s15.47-4.26,19.52-12.8c2.56-5.33,3.84-11.2,3.84-17.6v-40.32h10.72v76.16Z"/>
        <path d="M573.45,94.4c-.54,6.29-3.31,11.2-8.32,14.72-4.59,3.09-10.3,4.64-17.12,4.64-7.68,0-15.1-2.83-22.24-8.48l4.96-5.28c5.65,4.91,11.41,7.36,17.28,7.36,3.84,0,7.17-1.2,10-3.6,2.83-2.4,4.24-5.41,4.24-9.04,0-5.97-4.7-12.43-14.08-19.36-6.4-4.69-10.3-7.73-11.68-9.12-4.06-4.05-6.08-8.37-6.08-12.96,0-6.18,2.56-11.09,7.68-14.72,4.48-3.09,10.03-4.64,16.64-4.64,6.19,0,11.89,2.03,17.12,6.08l-3.84,4.64c-3.84-2.88-8.48-4.32-13.92-4.32-3.31,0-6.24.8-8.8,2.4-2.99,1.82-4.48,4.27-4.48,7.36,0,4.27,3.36,8.8,10.08,13.6,6.4,4.59,11.89,8.96,16.48,13.12,4.59,5.12,6.61,10.99,6.08,17.6Z"/>
      </g>
      <g>
        <path d="M32.03,322.9h-2.21c-.23-1.2-.66-2.36-1.29-3.48-.63-1.12-1.45-2.13-2.44-3.04-1-.9-2.15-1.62-3.46-2.15-1.31-.53-2.76-.79-4.35-.79-2.32,0-4.46.62-6.41,1.86-1.95,1.24-3.51,3.05-4.68,5.45-1.17,2.39-1.75,5.32-1.75,8.79s.58,6.43,1.75,8.82c1.17,2.39,2.73,4.2,4.68,5.43,1.95,1.23,4.09,1.84,6.41,1.84,1.59,0,3.04-.26,4.35-.79,1.31-.52,2.47-1.24,3.46-2.14,1-.9,1.81-1.92,2.44-3.05.63-1.13,1.06-2.29,1.29-3.49h2.21c-.25,1.43-.74,2.83-1.46,4.19-.72,1.37-1.66,2.61-2.83,3.72s-2.54,1.99-4.12,2.64c-1.58.65-3.36.98-5.34.98-2.95,0-5.54-.75-7.78-2.25-2.24-1.5-4-3.62-5.27-6.34s-1.91-5.91-1.91-9.56.64-6.83,1.91-9.56c1.27-2.73,3.03-4.84,5.27-6.34,2.24-1.5,4.84-2.25,7.78-2.25,1.98,0,3.76.33,5.34.98,1.58.65,2.96,1.52,4.12,2.62s2.11,2.33,2.83,3.7c.72,1.37,1.21,2.78,1.46,4.23Z"/>
        <path d="M50.04,347.21v-35.35h10.89c2.23,0,4.15.44,5.77,1.31,1.61.88,2.85,2.09,3.71,3.63.86,1.55,1.29,3.35,1.29,5.39s-.43,3.81-1.29,5.34c-.86,1.54-2.1,2.74-3.7,3.6-1.61.86-3.52,1.29-5.76,1.29h-9.75v-2.02h9.7c1.82,0,3.37-.34,4.66-1.02,1.29-.68,2.28-1.63,2.97-2.86s1.04-2.67,1.04-4.34-.35-3.14-1.04-4.39c-.69-1.25-1.68-2.22-2.98-2.91-1.29-.69-2.85-1.04-4.67-1.04h-8.68v33.35h-2.16ZM64.56,331.19l8.7,16.02h-2.49l-8.65-16.02h2.43Z"/>
        <path d="M88.69,347.21h-2.28l12.75-35.35h2.49l12.75,35.35h-2.28l-11.63-32.57h-.17l-11.63,32.57ZM91.92,333.9h16.98v2h-16.98v-2Z"/>
        <path d="M130.7,347.21v-35.35h19.73v2h-17.57v14.65h15.93v2h-15.93v16.69h-2.16Z"/>
        <path d="M166.54,313.86v-2h24.77v2h-11.31v33.35h-2.16v-33.35h-11.31Z"/>
        <path d="M211.05,311.86v35.35h-2.16v-35.35h2.16Z"/>
        <path d="M258,311.86v35.35h-2.11l-22.54-31.43h-.21v31.43h-2.16v-35.35h2.12l22.54,31.46h.21v-31.46h2.14Z"/>
        <path d="M302.71,322.9c-.27-1.2-.71-2.36-1.35-3.48s-1.44-2.13-2.43-3.04-2.13-1.62-3.45-2.15c-1.32-.53-2.79-.79-4.43-.79-2.5,0-4.71.65-6.64,1.96s-3.44,3.16-4.52,5.58c-1.09,2.41-1.63,5.26-1.63,8.55s.54,6.09,1.62,8.51c1.08,2.42,2.6,4.28,4.55,5.6,1.95,1.32,4.22,1.98,6.81,1.98,2.31,0,4.36-.54,6.15-1.61,1.79-1.07,3.18-2.6,4.19-4.59,1-1.99,1.49-4.37,1.47-7.15l.76.36h-12.01v-2h13.36v2c0,3.12-.6,5.8-1.79,8.05s-2.84,3.98-4.94,5.19-4.5,1.81-7.19,1.81c-3.04,0-5.69-.75-7.96-2.26-2.27-1.51-4.02-3.62-5.27-6.34-1.25-2.72-1.87-5.91-1.87-9.55,0-2.74.36-5.22,1.07-7.46.71-2.23,1.73-4.15,3.05-5.74s2.9-2.82,4.73-3.68,3.85-1.29,6.06-1.29c2,0,3.8.33,5.4.99,1.6.66,2.98,1.55,4.15,2.66s2.12,2.35,2.84,3.71,1.21,2.75,1.47,4.17h-2.21Z"/>
        <path d="M3.74,395.81H1.47l12.75-35.35h2.49l12.75,35.35h-2.28l-11.63-32.57h-.17l-11.63,32.57ZM6.97,382.5h16.98v2H6.97v-2Z"/>
        <path d="M39.27,362.47v-2h24.77v2h-11.31v33.35h-2.16v-33.35h-11.31Z"/>
        <path d="M81.63,360.46h2.35l13.62,32.24h.24l13.62-32.24h2.35v35.35h-2.07v-30.22h-.21l-12.79,30.22h-2.04l-12.79-30.22h-.21v30.22h-2.07v-35.35Z"/>
        <path d="M161.86,378.14c0,3.65-.63,6.83-1.9,9.55-1.27,2.72-3.02,4.84-5.27,6.34-2.25,1.51-4.84,2.26-7.78,2.26s-5.54-.76-7.79-2.27c-2.25-1.51-4.01-3.63-5.27-6.35-1.27-2.72-1.9-5.9-1.9-9.54s.64-6.83,1.91-9.54c1.27-2.71,3.03-4.83,5.27-6.34,2.24-1.51,4.84-2.27,7.78-2.27s5.53.75,7.78,2.26c2.25,1.51,4.01,3.62,5.27,6.34,1.27,2.72,1.9,5.91,1.9,9.55ZM159.75,378.14c0-3.28-.55-6.12-1.65-8.53-1.1-2.4-2.61-4.27-4.55-5.58s-4.15-1.98-6.65-1.98-4.71.65-6.65,1.96-3.45,3.16-4.55,5.58c-1.1,2.41-1.65,5.26-1.65,8.55s.54,6.09,1.63,8.5c1.09,2.41,2.6,4.28,4.53,5.6,1.93,1.32,4.16,1.99,6.68,1.99s4.71-.66,6.65-1.98c1.93-1.32,3.45-3.18,4.55-5.58,1.1-2.41,1.65-5.25,1.65-8.53Z"/>
        <path d="M199.06,369.3c-.18-2.2-1.08-3.98-2.68-5.33-1.61-1.36-3.68-2.04-6.22-2.04-1.71,0-3.24.32-4.57.95-1.33.63-2.38,1.5-3.14,2.59-.76,1.09-1.14,2.35-1.14,3.76,0,.91.18,1.73.53,2.46.35.73.85,1.38,1.49,1.95s1.41,1.07,2.3,1.49c.89.43,1.86.8,2.93,1.12l3.87,1.14c1.32.4,2.55.87,3.67,1.4,1.12.53,2.1,1.16,2.93,1.89.83.73,1.48,1.59,1.95,2.56.47.98.7,2.11.7,3.38,0,1.86-.48,3.53-1.44,5.01s-2.32,2.63-4.09,3.48c-1.77.85-3.85,1.27-6.24,1.27s-4.26-.39-5.95-1.16-3.02-1.84-4-3.22-1.53-2.96-1.66-4.76h2.21c.12,1.46.58,2.72,1.41,3.79s1.92,1.88,3.29,2.46,2.93.86,4.69.86c1.9,0,3.57-.32,5.02-.97,1.45-.65,2.58-1.56,3.4-2.72s1.23-2.51,1.23-4.06c0-1.24-.29-2.31-.88-3.19s-1.45-1.65-2.6-2.3-2.56-1.22-4.25-1.73l-4.13-1.24c-2.76-.84-4.87-1.98-6.33-3.43s-2.18-3.26-2.18-5.42c0-1.82.48-3.43,1.45-4.84.97-1.41,2.28-2.52,3.94-3.32,1.66-.81,3.54-1.21,5.64-1.21s3.96.41,5.58,1.22c1.61.81,2.89,1.92,3.83,3.33.94,1.41,1.47,3.02,1.57,4.82h-2.12Z"/>
        <path d="M219.89,395.81v-35.35h10.89c2.24,0,4.17.46,5.77,1.38,1.6.92,2.84,2.18,3.7,3.78.86,1.6,1.29,3.42,1.29,5.47s-.43,3.84-1.29,5.44c-.86,1.6-2.1,2.86-3.7,3.79-1.61.93-3.52,1.39-5.76,1.39h-9.39v-2h9.34c1.82,0,3.37-.37,4.66-1.11,1.29-.74,2.28-1.76,2.97-3.06.69-1.29,1.04-2.78,1.04-4.44s-.35-3.17-1.04-4.47c-.69-1.3-1.68-2.32-2.98-3.06s-2.85-1.1-4.67-1.1h-8.68v33.35h-2.16Z"/>
        <path d="M259.56,395.81v-35.35h2.16v16.66h21.3v-16.66h2.16v35.35h-2.16v-16.69h-21.3v16.69h-2.16Z"/>
        <path d="M305.11,395.81v-35.35h19.68v2h-17.52v14.65h16.47v2h-16.47v14.69h17.93v2h-20.09Z"/>
        <path d="M343.43,395.81v-35.35h10.89c2.23,0,4.15.44,5.76,1.31,1.61.88,2.85,2.09,3.71,3.63.86,1.55,1.29,3.35,1.29,5.39s-.43,3.81-1.29,5.34c-.86,1.54-2.1,2.74-3.7,3.6-1.6.86-3.52,1.29-5.76,1.29h-9.75v-2.02h9.7c1.82,0,3.37-.34,4.66-1.02,1.29-.68,2.28-1.63,2.97-2.86s1.04-2.67,1.04-4.34-.34-3.14-1.04-4.39c-.69-1.25-1.68-2.22-2.98-2.91-1.29-.69-2.85-1.04-4.67-1.04h-8.68v33.35h-2.16ZM357.95,379.79l8.7,16.02h-2.49l-8.65-16.02h2.43Z"/>
        <path d="M383.44,395.81v-35.35h19.68v2h-17.52v14.65h16.47v2h-16.47v14.69h17.93v2h-20.09Z"/>
        <path d="M440.82,369.3c-.18-2.2-1.08-3.98-2.68-5.33-1.61-1.36-3.68-2.04-6.22-2.04-1.71,0-3.24.32-4.57.95s-2.38,1.5-3.14,2.59c-.76,1.09-1.14,2.35-1.14,3.76,0,.91.18,1.73.53,2.46.35.73.85,1.38,1.49,1.95s1.41,1.07,2.3,1.49c.89.43,1.86.8,2.93,1.12l3.87,1.14c1.32.4,2.54.87,3.67,1.4s2.1,1.16,2.93,1.89c.83.73,1.48,1.59,1.95,2.56.47.98.7,2.11.7,3.38,0,1.86-.48,3.53-1.44,5.01s-2.32,2.63-4.09,3.48-3.85,1.27-6.24,1.27-4.26-.39-5.95-1.16-3.02-1.84-4-3.22c-.98-1.38-1.53-2.96-1.66-4.76h2.21c.12,1.46.58,2.72,1.41,3.79.82,1.06,1.92,1.88,3.29,2.46,1.37.58,2.93.86,4.69.86,1.9,0,3.57-.32,5.02-.97,1.45-.65,2.58-1.56,3.4-2.72s1.23-2.51,1.23-4.06c0-1.24-.29-2.31-.88-3.19s-1.45-1.65-2.6-2.3c-1.15-.64-2.56-1.22-4.25-1.73l-4.12-1.24c-2.76-.84-4.87-1.98-6.33-3.43s-2.18-3.26-2.18-5.42c0-1.82.48-3.43,1.45-4.84.97-1.41,2.28-2.52,3.94-3.32,1.66-.81,3.54-1.21,5.63-1.21s3.96.41,5.58,1.22,2.89,1.92,3.83,3.33c.94,1.41,1.47,3.02,1.57,4.82h-2.12Z"/>
      </g>
    </g>
  </g>
</svg>