<?xml version="1.0" encoding="UTF-8"?>
<svg id="Layer_2" data-name="Layer 2" xmlns="http://www.w3.org/2000/svg" viewBox="0 0 614.17 698.19">
  <g id="Layer_1-2" data-name="Layer 1">
    <g>
      <path d="M614.17,520.5c0,32.77-6.83,62.31-20.48,88.59-15.03,28-36.7,49.5-65.03,64.52-31.07,16.39-73.74,24.58-128.02,24.58h-80.39v-341.55h83.47c33.45,0,59.4,1.54,77.83,4.61,29.36,4.79,53.77,14,73.23,27.65,39.6,28.34,59.4,72.2,59.4,131.6ZM571.15,517.43c0-58.37-21-98.49-62.98-120.33-14-7.17-31.07-11.78-51.21-13.83-8.19-.68-26.12-1.02-53.77-1.02h-44.55v290.85h41.99c26.63,0,47.28-1.36,61.96-4.1,22.19-3.75,40.97-11.43,56.33-23.04,34.82-26.63,52.23-69.47,52.23-128.53Z"/>
      <path d="M545.53,228.84c-21.25,30.97-46.84,51.08-76.79,60.34-33.19,10.36-64.98,5.1-95.38-15.75-29.84-20.47-43.6-50.81-41.26-91.02L28.29,625.27l-28.29-19.41L415.63,0l28.29,19.41-28.97,42.23c37.67-20.52,73.96-18.81,108.87,5.14,27.87,19.12,43.44,44.08,46.73,74.9,3.02,29.39-5.32,58.45-25.02,87.16ZM513.29,207.96c14.67-21.39,22.31-43.69,22.9-66.88.53-26.12-9.33-46.14-29.6-60.05-24.49-16.8-49.93-19.55-76.3-8.26-21.82,9.47-41.6,27.15-59.36,53.04-15.45,22.53-22.58,45.58-21.37,69.17,1.16,26.05,12.59,46.51,34.27,61.39,21.96,15.06,45.99,16.24,72.11,3.51,21.63-10.41,40.75-27.72,57.36-51.93Z"/>
    </g>
  </g>
</svg>